<?xml version="1.0" standalone="no"?>
<!DOCTYPE svg PUBLIC "-//W3C//DTD SVG 20010904//EN"
 "http://www.w3.org/TR/2001/REC-SVG-20010904/DTD/svg10.dtd">
<svg version="1.0" xmlns="http://www.w3.org/2000/svg"
 width="980.000000pt" height="980.000000pt" viewBox="0 0 980.000000 980.000000"
 preserveAspectRatio="xMidYMid meet">

<g transform="translate(0.000000,980.000000) scale(0.100000,-0.100000)"
fill="#000000" stroke="none">
<path d="M4560 9789 c-1035 -75 -1998 -463 -2800 -1128 -150 -123 -501 -475
-622 -621 -534 -647 -880 -1372 -1042 -2180 -259 -1290 18 -2648 761 -3727
277 -403 628 -778 1018 -1087 680 -539 1533 -896 2400 -1005 1489 -188 2966
303 4028 1338 331 322 576 631 803 1007 982 1635 915 3724 -172 5294 -189 274
-368 484 -631 740 -786 767 -1788 1234 -2903 1355 -174 19 -664 27 -840 14z
m730 -374 c1385 -122 2615 -852 3388 -2010 406 -609 650 -1295 734 -2060 17
-159 17 -729 0 -890 -102 -952 -471 -1807 -1085 -2521 -96 -111 -377 -391
-477 -476 l-55 -46 -115 9 c-805 65 -1416 435 -1723 1045 -86 170 -127 311
-127 435 0 94 20 163 65 226 97 135 122 174 171 272 99 199 185 444 239 685
14 65 33 129 42 142 8 13 67 65 129 115 166 133 233 235 250 385 5 37 17 74
35 102 61 96 63 237 8 502 l-33 155 -1 530 c-1 447 -3 548 -18 647 -43 296
-107 459 -259 663 -94 126 -308 345 -418 427 -273 202 -590 330 -912 368 -162
19 -432 8 -583 -24 -302 -64 -602 -207 -845 -403 -177 -143 -410 -414 -484
-562 -68 -135 -112 -310 -138 -546 -7 -68 -12 -297 -13 -595 -1 -524 3 -476
-61 -735 -48 -197 -36 -346 35 -435 21 -26 29 -50 33 -95 8 -77 39 -161 84
-219 19 -25 79 -79 132 -119 117 -89 167 -143 181 -194 6 -21 31 -117 55 -214
61 -240 118 -413 181 -545 60 -128 94 -180 181 -281 92 -106 99 -121 99 -233
-1 -92 -2 -100 -69 -280 -77 -209 -116 -290 -191 -405 -245 -374 -696 -654
-1300 -808 -149 -38 -292 -67 -331 -67 -30 0 -166 113 -353 295 -370 360 -654
747 -885 1203 -251 497 -394 980 -463 1557 -25 213 -25 757 0 970 83 695 286
1294 632 1866 180 296 373 545 625 803 465 478 973 817 1595 1066 358 143 831
256 1205 289 69 6 139 13 155 15 88 10 539 4 685 -9z"/>
</g>
</svg>
